<?xml version="1.0" encoding="utf-8"?>
<!-- Generator: Adobe Illustrator 24.0.1, SVG Export Plug-In . SVG Version: 6.00 Build 0)  -->
<svg version="1.1" id="Layer_1" xmlns="http://www.w3.org/2000/svg" xmlns:xlink="http://www.w3.org/1999/xlink" x="0px" y="0px"
	 viewBox="0 0 170.9 203.1" style="enable-background:new 0 0 170.9 203.1;" xml:space="preserve">
<style type="text/css">
	.st0{fill:#53B9D7;}
	.st1{enable-background:new    ;}
	.st2{fill:#FFFFFF;}
</style>
<g transform="translate(-693 -1050.21)">
	<path class="st0" d="M778.4,1050.2L693,1101v101.6l85.4,50.8l85.4-50.8V1101L778.4,1050.2z"/>
	<g class="st1">
		<path class="st2" d="M819.5,1163v12.7c0,5.3-1.9,9.9-5.7,13.6s-8.3,5.7-13.6,5.7h-55.7c-5.3,0-9.9-1.9-13.6-5.7
			c-3.8-3.8-5.7-8.3-5.7-13.6V1120c0-5.3,1.9-9.9,5.7-13.6c3.8-3.8,8.3-5.7,13.6-5.7h55.7c2.8,0,5.4,0.6,7.8,1.7
			c0.7,0.3,1.1,0.8,1.2,1.5c0.1,0.8-0.1,1.4-0.6,1.9l-3.3,3.3c-0.6,0.6-1.3,0.8-2.1,0.5c-1-0.3-2-0.4-3-0.4h-55.7
			c-2.9,0-5.5,1-7.6,3.1c-2.1,2.1-3.1,4.6-3.1,7.6v55.7c0,2.9,1,5.5,3.1,7.6c2.1,2.1,4.6,3.1,7.6,3.1h55.7c2.9,0,5.5-1,7.6-3.1
			c2.1-2.1,3.1-4.6,3.1-7.6v-8.4c0-0.6,0.2-1.1,0.6-1.5l4.3-4.3c0.7-0.7,1.5-0.8,2.3-0.5C819.1,1161.4,819.5,1162.1,819.5,1163z
			 M813.1,1113.6l19.3,19.3l-45,45h-19.3v-19.3L813.1,1113.6z M784.7,1171.4l7.8-7.8l-10.2-10.2l-7.8,7.8v3.8h6.4v6.4H784.7z
			 M814.2,1123.2c-0.7-0.7-1.5-0.7-2.2,0.1l-23.4,23.4c-0.8,0.8-0.8,1.5-0.1,2.2c0.7,0.7,1.5,0.7,2.2-0.1l23.4-23.4
			C814.8,1124.7,814.9,1123.9,814.2,1123.2z M842.8,1122.4l-6.2,6.2l-19.3-19.3l6.2-6.2c1.2-1.2,2.8-1.9,4.6-1.9
			c1.8,0,3.3,0.6,4.6,1.9l10.2,10.2c1.2,1.2,1.9,2.8,1.9,4.6C844.7,1119.6,844.1,1121.2,842.8,1122.4z"/>
	</g>
</g>
</svg>
