<?xml version="1.0" encoding="UTF-8" standalone="no"?>
<!-- Generator: Adobe Illustrator 24.2.3, SVG Export Plug-In . SVG Version: 6.00 Build 0)  -->

<svg
   version="1.1"
   id="Layer_1"
   x="0px"
   y="0px"
   viewBox="0 0 170.9 203.1"
   style="enable-background:new 0 0 170.9 203.1;"
   xml:space="preserve"
   sodipodi:docname="community_icon_bulb.svg"
   inkscape:version="1.4 (e7c3feb100, 2024-10-09)"
   xmlns:inkscape="http://www.inkscape.org/namespaces/inkscape"
   xmlns:sodipodi="http://sodipodi.sourceforge.net/DTD/sodipodi-0.dtd"
   xmlns="http://www.w3.org/2000/svg"
   xmlns:svg="http://www.w3.org/2000/svg"><defs
   id="defs2" /><sodipodi:namedview
   id="namedview2"
   pagecolor="#ffffff"
   bordercolor="#000000"
   borderopacity="0.25"
   inkscape:showpageshadow="2"
   inkscape:pageopacity="0.0"
   inkscape:pagecheckerboard="0"
   inkscape:deskcolor="#d1d1d1"
   inkscape:zoom="1.4274538"
   inkscape:cx="18.564524"
   inkscape:cy="192.65072"
   inkscape:window-width="1920"
   inkscape:window-height="975"
   inkscape:window-x="0"
   inkscape:window-y="0"
   inkscape:window-maximized="1"
   inkscape:current-layer="Layer_1" />
<style
   type="text/css"
   id="style1">
	.st0{fill:#53B9D7;}
	.st1{fill:#FFFFFF;}
</style>
<path
   class="st0"
   d="M85.4,0L0,50.8v101.6l85.4,50.8l85.4-50.8V50.8L85.4,0z"
   id="path1" />

<path
   d="m 110.85341,99.772076 c 3.47727,-4.974437 5.50569,-11.035517 5.50569,-17.603697 0,-17.072435 -13.83666,-30.909091 -30.909096,-30.909091 -17.072448,0 -30.909097,13.836656 -30.909097,30.909091 0,6.56818 2.02841,12.62926 5.505682,17.603697 0.893465,1.279834 1.955967,2.728684 3.09091,4.274134 0,0 0,0 0,0 3.115057,4.27416 6.833799,9.39348 9.610795,14.44035 2.511354,4.58807 3.791185,9.36932 4.419029,13.88494 l -11.759939,0.0242 c -0.531249,-2.89772 -1.424717,-5.72299 -2.849431,-8.33095 -2.390625,-4.34661 -5.360797,-8.42757 -8.330966,-12.50852 0,0 0,0 0,0 0,0 0,0 0,0 -1.255682,-1.7145 -2.511363,-3.42898 -3.71875,-5.16763 C 45.751137,99.530676 42.95,91.175562 42.95,82.16846 c 0,-23.471587 19.028407,-42.5 42.500004,-42.5 23.471586,0 42.499996,19.028413 42.499996,42.5 0,9.007102 -2.80115,17.362216 -7.5824,24.22017 -1.20739,1.73865 -2.46305,3.45313 -3.71875,5.16763 0,0 0,0 0,0 0,0 0,0 0,0 -2.97016,4.05681 -5.94032,8.13777 -8.33096,12.50852 -1.42471,2.60796 -2.31818,5.43323 -2.84943,8.33095 H 93.73267 c 0.627843,-4.51563 1.907673,-9.32102 4.419024,-13.88492 2.777006,-5.04689 6.495756,-10.1662 9.610806,-14.44037 0,0 0,0 0,0 0,0 0,0 0,0 0,0 0,0 0,0 1.13495,-1.54544 2.1733,-2.99431 3.06677,-4.274139 z M 85.450004,70.577468 c -6.399152,0 -11.590908,5.191775 -11.590908,11.590911 0,2.125009 -1.738645,3.863637 -3.863637,3.863637 -2.125008,0 -3.863643,-1.738628 -3.863643,-3.863637 0,-10.673301 8.644892,-19.318184 19.318188,-19.318184 2.124992,0 3.863638,1.738645 3.863638,3.863636 0,2.125009 -1.738646,3.863637 -3.863638,3.863637 z m 0,92.727272 c -10.673296,0 -19.318188,-8.64488 -19.318188,-19.31819 v -3.86363 h 38.636374 v 3.86363 c 0,10.67331 -8.644888,19.31819 -19.318186,19.31819 z"
   id="path1-3"
   style="fill:#ffffff;fill-opacity:1;stroke-width:1" /></svg>
