<?xml version="1.0" encoding="utf-8"?>
<!-- Generator: Adobe Illustrator 24.0.1, SVG Export Plug-In . SVG Version: 6.00 Build 0)  -->
<svg version="1.1" id="Layer_1" xmlns="http://www.w3.org/2000/svg" xmlns:xlink="http://www.w3.org/1999/xlink" x="0px" y="0px"
	 viewBox="0 0 170.9 203.1" style="enable-background:new 0 0 170.9 203.1;" xml:space="preserve">
<style type="text/css">
	.st0{fill:#53B9D7;}
	.st1{enable-background:new    ;}
	.st2{fill:#FFFFFF;}
</style>
<g transform="translate(-1453 -611.21)">
	<path class="st0" d="M1538.4,611.2L1453,662v101.6l85.4,50.8l85.4-50.8V662L1538.4,611.2z"/>
	<g class="st1">
		<path class="st2" d="M1515.3,745.8l-3.3,3.3c-0.4,0.4-1,0.7-1.5,0.7c-0.6,0-1.1-0.2-1.5-0.7l-31.2-31.2c-0.4-0.4-0.7-1-0.7-1.5
			c0-0.6,0.2-1.1,0.7-1.5l31.2-31.2c0.4-0.4,1-0.7,1.5-0.7c0.6,0,1.1,0.2,1.5,0.7l3.3,3.3c0.4,0.4,0.7,1,0.7,1.5
			c0,0.6-0.2,1.1-0.7,1.5l-26.3,26.3l26.3,26.3c0.4,0.4,0.7,1,0.7,1.5S1515.7,745.4,1515.3,745.8z M1554.8,674.4l-25,86.5
			c-0.2,0.6-0.5,1-1,1.3c-0.5,0.3-1,0.3-1.6,0.2l-4.2-1.1c-0.6-0.2-1-0.5-1.3-1c-0.3-0.5-0.3-1.1-0.2-1.6l25-86.5
			c0.2-0.6,0.5-1,1-1.3c0.5-0.3,1-0.3,1.6-0.2l4.2,1.1c0.6,0.2,1,0.5,1.3,1C1555,673.2,1555,673.8,1554.8,674.4z M1598.8,718
			l-31.2,31.2c-0.4,0.4-1,0.7-1.5,0.7s-1.1-0.2-1.5-0.7l-3.3-3.3c-0.4-0.4-0.7-1-0.7-1.5s0.2-1.1,0.7-1.5l26.3-26.3l-26.3-26.3
			c-0.4-0.4-0.7-1-0.7-1.5c0-0.6,0.2-1.1,0.7-1.5l3.3-3.3c0.4-0.4,1-0.7,1.5-0.7s1.1,0.2,1.5,0.7l31.2,31.2c0.4,0.4,0.7,1,0.7,1.5
			C1599.5,717,1599.3,717.5,1598.8,718z"/>
	</g>
</g>
</svg>
