<?xml version="1.0" encoding="utf-8"?>
<!-- Generator: Adobe Illustrator 24.0.1, SVG Export Plug-In . SVG Version: 6.00 Build 0)  -->
<svg version="1.1" id="Layer_1" xmlns="http://www.w3.org/2000/svg" xmlns:xlink="http://www.w3.org/1999/xlink" x="0px" y="0px"
	 viewBox="0 0 170.9 203.1" style="enable-background:new 0 0 170.9 203.1;" xml:space="preserve">
<style type="text/css">
	.st0{fill:#53B9D7;}
	.st1{enable-background:new    ;}
	.st2{fill:#FFFFFF;}
</style>
<g transform="translate(-313 -611.21)">
	<path class="st0" d="M398.4,611.2L313,662v101.6l85.4,50.8l85.4-50.8V662L398.4,611.2z"/>
	<g class="st1">
		<path class="st2" d="M442.8,686.3c4.6,7.9,6.9,16.5,6.9,25.8c0,9.3-2.3,17.9-6.9,25.8c-4.6,7.9-10.8,14.1-18.7,18.7
			c-7.9,4.6-16.5,6.9-25.8,6.9c-9.3,0-17.9-2.3-25.8-6.9c-7.9-4.6-14.1-10.8-18.7-18.7c-4.6-7.9-6.9-16.5-6.9-25.8
			c0-9.3,2.3-17.9,6.9-25.8c4.6-7.9,10.8-14.1,18.7-18.7c7.9-4.6,16.5-6.9,25.8-6.9c9.3,0,17.9,2.3,25.8,6.9
			C431.9,672.2,438.2,678.4,442.8,686.3z M416.5,680.6c-5.6-3.3-11.7-4.9-18.3-4.9c-6.6,0-12.7,1.6-18.3,4.9
			c-5.6,3.3-10,7.7-13.3,13.3c-3.3,5.6-4.9,11.7-4.9,18.3c0,6.6,1.6,12.7,4.9,18.3c3.3,5.6,7.7,10,13.3,13.3
			c5.6,3.3,11.7,4.9,18.3,4.9c6.6,0,12.7-1.6,18.3-4.9c5.6-3.3,10-7.7,13.3-13.3c3.3-5.6,4.9-11.7,4.9-18.3c0-6.6-1.6-12.7-4.9-18.3
			C426.5,688.3,422.1,683.9,416.5,680.6z M421.8,714.3c0,0.5-0.2,1.1-0.7,1.6l-21.4,21.4c-0.5,0.4-1,0.6-1.5,0.6
			c-0.5,0-1-0.2-1.5-0.6l-21.4-21.4c-0.7-0.7-0.8-1.5-0.5-2.3c0.4-0.9,1-1.3,2-1.3h12.9v-23.6c0-0.6,0.2-1.1,0.6-1.5
			s0.9-0.6,1.5-0.6h12.9c0.6,0,1.1,0.2,1.5,0.6c0.4,0.4,0.6,0.9,0.6,1.5v23.6h12.9c0.6,0,1.1,0.2,1.5,0.6
			C421.6,713.1,421.8,713.7,421.8,714.3z"/>
	</g>
</g>
</svg>
