<?xml version="1.0" encoding="utf-8"?>
<!-- Generator: Adobe Illustrator 24.2.3, SVG Export Plug-In . SVG Version: 6.00 Build 0)  -->
<svg version="1.1" id="Layer_1" xmlns="http://www.w3.org/2000/svg" xmlns:xlink="http://www.w3.org/1999/xlink" x="0px" y="0px"
	 viewBox="0 0 170.9 203.1" style="enable-background:new 0 0 170.9 203.1;" xml:space="preserve">
<style type="text/css">
	.st0{fill:#53B9D7;}
	.st1{fill:#FFFFFF;}
</style>
<path class="st0" d="M85.4,0L0,50.8v101.6l85.4,50.8l85.4-50.8V50.8L85.4,0z"/>
<g>
	<path class="st1" d="M39.9,79.3v33.3c0,7.5,6.2,13.6,13.7,13.6h48.6c1.4,0,2.5-1.1,2.5-2.5V90.5c0-7.5-6.2-13.6-13.7-13.6H42.4
		C41.1,76.9,40,78,39.9,79.3L39.9,79.3z M107.8,92.3l20.1-14.7c1.7-1.4,3.1-1.1,3.1,1.5v44.7c0,3-1.7,2.6-3.1,1.5l-20.1-14.6V92.3z"
		/>
</g>
</svg>
