<?xml version="1.0" encoding="utf-8"?>
<!-- Generator: Adobe Illustrator 24.0.1, SVG Export Plug-In . SVG Version: 6.00 Build 0)  -->
<svg version="1.1" id="Layer_1" xmlns="http://www.w3.org/2000/svg" xmlns:xlink="http://www.w3.org/1999/xlink" x="0px" y="0px"
	 viewBox="0 0 170.9 203.1" style="enable-background:new 0 0 170.9 203.1;" xml:space="preserve">
<style type="text/css">
	.st0{fill:#53B9D7;}
	.st1{enable-background:new    ;}
	.st2{fill:#FFFFFF;}
</style>
<g transform="translate(-1073 -1050.21)">
	<path class="st0" d="M1158.4,1050.2L1073,1101v101.6l85.4,50.8l85.4-50.8V1101L1158.4,1050.2z"/>
	<g class="st1">
		<path class="st2" d="M1162.5,1119l27.9,27.9l-55.7,55.7h-27.9v-27.9L1162.5,1119z M1131.1,1194l6.1-6.1l-15.7-15.7l-6.1,6.1v7.2
			h8.6v8.6H1131.1z M1166.1,1131.9c0-1-0.5-1.5-1.5-1.5c-0.4,0-0.8,0.2-1.1,0.5l-36.3,36.3c-0.3,0.3-0.5,0.7-0.5,1.1
			c0,1,0.5,1.5,1.5,1.5c0.4,0,0.8-0.2,1.1-0.5l36.3-36.3C1166,1132.7,1166.1,1132.3,1166.1,1131.9z M1208.2,1125.4
			c0,2.4-0.8,4.4-2.5,6l-11.1,11.1l-27.9-27.9l11.1-11c1.6-1.7,3.6-2.5,6-2.5c2.4,0,4.4,0.8,6.1,2.5l15.7,15.7
			C1207.4,1121.1,1208.2,1123.1,1208.2,1125.4z"/>
	</g>
</g>
</svg>
