<?xml version="1.0" encoding="utf-8"?>
<!-- Generator: Adobe Illustrator 24.0.1, SVG Export Plug-In . SVG Version: 6.00 Build 0)  -->
<svg version="1.1" id="Layer_1" xmlns="http://www.w3.org/2000/svg" xmlns:xlink="http://www.w3.org/1999/xlink" x="0px" y="0px"
	 viewBox="0 0 170.9 203.1" style="enable-background:new 0 0 170.9 203.1;" xml:space="preserve">
<style type="text/css">
	.st0{fill:#53B9D7;}
	.st1{enable-background:new    ;}
	.st2{fill:#FFFFFF;}
</style>
<g transform="translate(-1453 -1050.21)">
	<path class="st0" d="M1538.4,1050.2L1453,1101v101.6l85.4,50.8l85.4-50.8V1101L1538.4,1050.2z"/>
	<g class="st1">
		<path class="st2" d="M1581.1,1136.1v60c0,1.8-0.6,3.3-1.9,4.6c-1.2,1.2-2.8,1.9-4.6,1.9h-72.9c-1.8,0-3.3-0.6-4.6-1.9
			c-1.3-1.2-1.9-2.8-1.9-4.6v-90c0-1.8,0.6-3.3,1.9-4.6c1.2-1.2,2.8-1.9,4.6-1.9h42.9c1.8,0,3.8,0.4,5.9,1.3c2.1,0.9,3.8,2,5.1,3.2
			l20.9,20.9c1.2,1.2,2.3,2.9,3.2,5.1C1580.6,1132.4,1581.1,1134.4,1581.1,1136.1z M1503.9,1194h68.6v-51.4h-27.9
			c-1.8,0-3.3-0.6-4.6-1.9c-1.2-1.2-1.9-2.8-1.9-4.6v-27.9h-34.3V1194z M1546.8,1134h25.2c-0.4-1.3-0.9-2.2-1.5-2.7l-21-21
			c-0.5-0.5-1.5-1-2.7-1.5V1134z"/>
	</g>
</g>
</svg>
