<?xml version="1.0" encoding="utf-8"?>
<!-- Generator: Adobe Illustrator 24.0.1, SVG Export Plug-In . SVG Version: 6.00 Build 0)  -->
<svg version="1.1" id="Layer_1" xmlns="http://www.w3.org/2000/svg" xmlns:xlink="http://www.w3.org/1999/xlink" x="0px" y="0px"
	 viewBox="0 0 170.9 203.1" style="enable-background:new 0 0 170.9 203.1;" xml:space="preserve">
<style type="text/css">
	.st0{fill:#53B9D7;}
	.st1{enable-background:new    ;}
	.st2{fill:#FFFFFF;}
</style>
<g transform="translate(-313 -1489.21)">
	<path class="st0" d="M398.4,1489.2L313,1540v101.6l85.4,50.8l85.4-50.8V1540L398.4,1489.2z"/>
	<g class="st1">
		<path class="st2" d="M393.9,1553.7v72.9c0,1.2-0.4,2.2-1.3,3c-0.8,0.8-1.9,1.3-3,1.3c-1.2,0-2.2-0.4-3-1.3l-22.3-22.3h-17.5
			c-1.2,0-2.2-0.4-3-1.3c-0.8-0.8-1.3-1.9-1.3-3v-25.7c0-1.2,0.4-2.2,1.3-3c0.8-0.8,1.9-1.3,3-1.3h17.5l22.3-22.3
			c0.8-0.8,1.9-1.3,3-1.3c1.2,0,2.2,0.4,3,1.3C393.5,1551.5,393.9,1552.6,393.9,1553.7z M416.8,1580.6c1.9,2.9,2.8,6.1,2.8,9.5
			c0,3.4-0.9,6.6-2.8,9.5c-1.9,2.9-4.4,5-7.5,6.3c-0.4,0.2-1,0.3-1.7,0.3c-1.2,0-2.2-0.4-3-1.2c-0.8-0.8-1.3-1.8-1.3-3
			c0-0.9,0.3-1.7,0.8-2.4s1.2-1.2,1.9-1.7c0.8-0.5,1.5-1,2.3-1.5c0.8-0.6,1.4-1.3,1.9-2.4c0.5-1,0.8-2.3,0.8-3.8
			c0-1.5-0.3-2.8-0.8-3.8c-0.5-1-1.2-1.8-1.9-2.4c-0.8-0.6-1.5-1.1-2.3-1.5c-0.8-0.5-1.4-1-1.9-1.7c-0.5-0.6-0.8-1.4-0.8-2.4
			c0-1.2,0.4-2.2,1.3-3c0.8-0.8,1.9-1.2,3-1.2c0.7,0,1.2,0.1,1.7,0.3C412.4,1575.6,414.9,1577.7,416.8,1580.6z M431.1,1571.2
			c3.8,5.8,5.7,12.1,5.7,18.9c0,6.8-1.9,13.1-5.7,18.9c-3.8,5.8-8.8,10-15.1,12.6c-0.6,0.2-1.1,0.3-1.7,0.3c-1.2,0-2.2-0.4-3.1-1.3
			c-0.8-0.8-1.3-1.9-1.3-3c0-1.7,0.9-3.1,2.6-4c2.5-1.3,4.2-2.3,5.1-2.9c3.3-2.4,5.9-5.4,7.7-9.1c1.9-3.6,2.8-7.5,2.8-11.6
			c0-4.1-0.9-8-2.8-11.6c-1.9-3.6-4.4-6.7-7.7-9.1c-0.9-0.7-2.6-1.7-5.1-2.9c-1.7-0.9-2.6-2.2-2.6-4c0-1.2,0.4-2.2,1.3-3
			c0.8-0.8,1.9-1.3,3-1.3c0.6,0,1.2,0.1,1.7,0.3C422.3,1561.2,427.3,1565.4,431.1,1571.2z M445.4,1561.9c5.7,8.6,8.5,18,8.5,28.3
			c0,10.3-2.8,19.7-8.5,28.3c-5.7,8.6-13.2,14.9-22.6,19c-0.6,0.2-1.2,0.3-1.7,0.3c-1.2,0-2.2-0.4-3-1.3c-0.8-0.8-1.3-1.9-1.3-3
			c0-1.6,0.9-2.9,2.6-4c0.3-0.2,0.8-0.4,1.5-0.7c0.7-0.3,1.2-0.5,1.5-0.7c2.1-1.1,3.9-2.3,5.5-3.4c5.5-4.1,9.8-9.1,12.9-15.2
			c3.1-6.1,4.6-12.5,4.6-19.4c0-6.8-1.5-13.3-4.6-19.4c-3.1-6.1-7.4-11.1-12.9-15.2c-1.6-1.2-3.4-2.3-5.5-3.4
			c-0.3-0.2-0.8-0.4-1.5-0.7c-0.7-0.3-1.2-0.5-1.5-0.7c-1.7-1-2.6-2.3-2.6-4c0-1.2,0.4-2.2,1.3-3c0.8-0.8,1.9-1.3,3-1.3
			c0.6,0,1.2,0.1,1.7,0.3C432.2,1546.9,439.8,1553.3,445.4,1561.9z"/>
	</g>
</g>
</svg>
