<?xml version="1.0" encoding="UTF-8" standalone="no"?>
<!-- Generator: Adobe Illustrator 24.2.3, SVG Export Plug-In . SVG Version: 6.00 Build 0)  -->

<svg
   version="1.1"
   id="Layer_1"
   x="0px"
   y="0px"
   viewBox="0 0 170.9 203.1"
   style="enable-background:new 0 0 170.9 203.1;"
   xml:space="preserve"
   sodipodi:docname="community_icon_question.svg"
   inkscape:version="1.4 (e7c3feb100, 2024-10-09)"
   xmlns:inkscape="http://www.inkscape.org/namespaces/inkscape"
   xmlns:sodipodi="http://sodipodi.sourceforge.net/DTD/sodipodi-0.dtd"
   xmlns="http://www.w3.org/2000/svg"
   xmlns:svg="http://www.w3.org/2000/svg"><defs
   id="defs2" /><sodipodi:namedview
   id="namedview2"
   pagecolor="#ffffff"
   bordercolor="#000000"
   borderopacity="0.25"
   inkscape:showpageshadow="2"
   inkscape:pageopacity="0.0"
   inkscape:pagecheckerboard="0"
   inkscape:deskcolor="#d1d1d1"
   inkscape:zoom="1.0093622"
   inkscape:cx="4.4582609"
   inkscape:cy="250.65333"
   inkscape:window-width="1920"
   inkscape:window-height="975"
   inkscape:window-x="0"
   inkscape:window-y="0"
   inkscape:window-maximized="1"
   inkscape:current-layer="Layer_1" />
<style
   type="text/css"
   id="style1">
	.st0{fill:#53B9D7;}
	.st1{fill:#FFFFFF;}
</style>
<path
   class="st0"
   d="M85.4,0L0,50.8v101.6l85.4,50.8l85.4-50.8V50.8L85.4,0z"
   id="path1" />

<path
   d="m 66.005553,78.165417 c 0,-8.579856 6.975706,-15.555559 15.555558,-15.555559 h 7.777787 c 8.579855,0 15.555542,6.975703 15.555542,15.555559 v 0.875008 c 0,5.29859 -2.6979,10.232622 -7.145825,13.076376 l -10.256946,6.586806 c -6.124998,3.937483 -9.819442,10.718763 -9.819442,17.986113 v 0.34027 c 0,4.30209 3.4757,7.77778 7.77777,7.77778 4.302087,0 7.777787,-3.47569 7.777787,-7.77778 v -0.34027 c 0,-1.99307 1.020828,-3.84028 2.673601,-4.90973 l 10.256945,-6.58681 C 115.05417,99.457083 120.45,89.613322 120.45,79.016106 v -0.874993 c 0,-17.184028 -13.92709,-31.111116 -31.111102,-31.111116 h -7.777787 c -17.184028,0.02428 -31.111116,13.95139 -31.111116,31.13542 0,4.302086 3.4757,7.777764 7.777787,7.777764 4.302086,0 7.777771,-3.475678 7.777771,-7.777764 z m 19.444444,77.777773 a 9.722225,9.722225 0 1 0 0,-19.44445 9.722225,9.722225 0 1 0 0,19.44445 z"
   id="path1-6"
   style="fill:#ffffff;fill-opacity:1;stroke-width:1" /></svg>
