<?xml version="1.0" encoding="utf-8"?>
<!-- Generator: Adobe Illustrator 24.0.1, SVG Export Plug-In . SVG Version: 6.00 Build 0)  -->
<svg version="1.1" id="Layer_1" xmlns="http://www.w3.org/2000/svg" xmlns:xlink="http://www.w3.org/1999/xlink" x="0px" y="0px"
	 viewBox="0 0 170.9 203.1" style="enable-background:new 0 0 170.9 203.1;" xml:space="preserve">
<style type="text/css">
	.st0{fill:#53B9D7;}
	.st1{enable-background:new    ;}
	.st2{fill:#FFFFFF;}
</style>
<g transform="translate(-693 -611.21)">
	<path class="st0" d="M778.4,611.2L693,662v101.6l85.4,50.8l85.4-50.8V662L778.4,611.2z"/>
	<g class="st1">
		<path class="st2" d="M831,679.5c-3,4.4-6.6,8.1-10.8,11.2c0,0.6,0.1,1.6,0.1,2.8c0,5.8-0.8,11.6-2.5,17.4
			c-1.7,5.8-4.3,11.3-7.7,16.6c-3.5,5.3-7.6,10-12.4,14.1c-4.8,4.1-10.5,7.3-17.3,9.8c-6.7,2.4-14,3.6-21.6,3.6
			c-12.1,0-23.2-3.2-33.2-9.7c1.6,0.2,3.3,0.3,5.2,0.3c10,0,19-3.1,26.9-9.2c-4.7-0.1-8.9-1.5-12.6-4.3c-3.7-2.8-6.3-6.4-7.6-10.7
			c1.5,0.2,2.8,0.3,4.1,0.3c1.9,0,3.8-0.2,5.7-0.7c-5-1-9.1-3.5-12.4-7.5c-3.3-4-4.9-8.5-4.9-13.8v-0.3c3,1.7,6.3,2.6,9.8,2.7
			c-2.9-2-5.3-4.5-7-7.7c-1.7-3.2-2.6-6.6-2.6-10.3c0-3.9,1-7.6,2.9-10.9c5.4,6.7,12,12,19.7,16c7.7,4,16,6.2,24.9,6.7
			c-0.4-1.7-0.5-3.3-0.5-5c0-6,2.1-11.1,6.3-15.3s9.3-6.3,15.3-6.3c6.2,0,11.5,2.3,15.8,6.8c4.9-0.9,9.4-2.7,13.7-5.2
			c-1.7,5.1-4.8,9.1-9.5,11.9C822.7,682.4,826.8,681.3,831,679.5z"/>
	</g>
</g>
</svg>
