<?xml version="1.0" encoding="utf-8"?>
<!-- Generator: Adobe Illustrator 24.0.1, SVG Export Plug-In . SVG Version: 6.00 Build 0)  -->
<svg version="1.1" id="Layer_1" xmlns="http://www.w3.org/2000/svg" xmlns:xlink="http://www.w3.org/1999/xlink" x="0px" y="0px"
	 viewBox="0 0 170.9 203.1" style="enable-background:new 0 0 170.9 203.1;" xml:space="preserve">
<style type="text/css">
	.st0{fill:#53B9D7;}
	.st1{enable-background:new    ;}
	.st2{fill:#FFFFFF;}
</style>
<g transform="translate(-1073 -611.21)">
	<path class="st0" d="M1158.4,611.2L1073,662v101.6l85.4,50.8l85.4-50.8V662L1158.4,611.2z"/>
	<g class="st1">
		<path class="st2" d="M1210.5,713.4c0.8,0.8,1.3,1.9,1.3,3c0,1.2-0.4,2.2-1.3,3c-0.8,0.8-1.9,1.3-3,1.3h-15
			c0,7.6-1.5,14.1-4.5,19.4l13.9,14c0.8,0.8,1.3,1.9,1.3,3c0,1.2-0.4,2.2-1.3,3c-0.8,0.8-1.8,1.3-3,1.3s-2.2-0.4-3-1.3l-13.3-13.2
			c-0.2,0.2-0.6,0.5-1,0.9c-0.4,0.4-1.4,1-2.8,1.9c-1.4,0.9-2.9,1.7-4.4,2.4c-1.5,0.7-3.3,1.4-5.5,1.9c-2.2,0.6-4.4,0.9-6.5,0.9v-60
			h-8.6v60c-2.3,0-4.5-0.3-6.8-0.9c-2.3-0.6-4.2-1.3-5.8-2.2c-1.6-0.9-3.1-1.7-4.4-2.6c-1.3-0.9-2.3-1.6-2.9-2.2l-1-0.9l-12.3,13.9
			c-0.9,0.9-2,1.4-3.2,1.4c-1.1,0-2-0.4-2.9-1.1c-0.8-0.8-1.3-1.8-1.4-3c-0.1-1.2,0.3-2.2,1-3.1l13.5-15.2
			c-2.6-5.1-3.9-11.2-3.9-18.3h-15c-1.2,0-2.2-0.4-3-1.3c-0.8-0.8-1.3-1.9-1.3-3c0-1.2,0.4-2.2,1.3-3c0.8-0.8,1.9-1.3,3-1.3h15
			v-19.7l-11.6-11.6c-0.8-0.8-1.3-1.9-1.3-3c0-1.2,0.4-2.2,1.3-3c0.8-0.8,1.9-1.3,3-1.3c1.2,0,2.2,0.4,3,1.3l11.6,11.6h56.5
			l11.6-11.6c0.8-0.8,1.9-1.3,3-1.3c1.2,0,2.2,0.4,3,1.3c0.8,0.8,1.3,1.9,1.3,3c0,1.2-0.4,2.2-1.3,3l-11.6,11.6v19.7h15
			C1208.7,712.1,1209.7,712.6,1210.5,713.4z M1179.7,677.9h-42.9c0-5.9,2.1-11,6.3-15.2c4.2-4.2,9.2-6.3,15.2-6.3
			c5.9,0,11,2.1,15.2,6.3C1177.6,666.9,1179.7,671.9,1179.7,677.9z"/>
	</g>
</g>
</svg>
