<?xml version="1.0" encoding="utf-8"?>
<!-- Generator: Adobe Illustrator 24.0.1, SVG Export Plug-In . SVG Version: 6.00 Build 0)  -->
<svg version="1.1" id="Layer_1" xmlns="http://www.w3.org/2000/svg" xmlns:xlink="http://www.w3.org/1999/xlink" x="0px" y="0px"
	 viewBox="0 0 170.9 203.1" style="enable-background:new 0 0 170.9 203.1;" xml:space="preserve">
<style type="text/css">
	.st0{fill:#53B9D7;}
	.st1{enable-background:new    ;}
	.st2{fill:#FFFFFF;}
</style>
<g transform="translate(-313 -1050.21)">
	<path class="st0" d="M398.4,1050.2L313,1101v101.6l85.4,50.8l85.4-50.8V1101L398.4,1050.2z"/>
	<g class="st1">
		<path class="st2" d="M426.2,1125.4c4.2,5.3,6.3,11,6.3,17.2c0,6.2-2.1,11.9-6.3,17.2c-4.2,5.3-9.9,9.4-17.2,12.5
			c-7.3,3.1-15.1,4.6-23.7,4.6c-3.8,0-7.8-0.4-11.8-1.1c-5.5,3.9-11.7,6.8-18.6,8.6c-1.6,0.4-3.5,0.8-5.8,1.1H349
			c-0.5,0-0.9-0.2-1.4-0.5c-0.4-0.4-0.7-0.8-0.8-1.4c0-0.1-0.1-0.3-0.1-0.4s0-0.3,0-0.4c0-0.1,0.1-0.3,0.1-0.4
			c0.1-0.1,0.1-0.2,0.2-0.3c0-0.1,0.1-0.2,0.2-0.4c0.1-0.2,0.2-0.3,0.3-0.3c0.1-0.1,0.2-0.2,0.3-0.3c0.1-0.2,0.2-0.3,0.3-0.3
			c0.2-0.3,0.7-0.8,1.5-1.7c0.8-0.8,1.4-1.5,1.7-2c0.4-0.5,0.9-1.1,1.5-1.9c0.6-0.8,1.2-1.7,1.7-2.6c0.5-0.9,0.9-1.9,1.4-2.9
			c-5.5-3.2-9.9-7.2-13.1-11.9c-3.2-4.7-4.8-9.7-4.8-15c0-6.2,2.1-11.9,6.3-17.2c4.2-5.3,9.9-9.4,17.2-12.5
			c7.3-3.1,15.1-4.6,23.7-4.6c8.5,0,16.4,1.5,23.7,4.6C416.3,1115.9,422,1120.1,426.2,1125.4z M458.2,1159.7c0,5.4-1.6,10.4-4.8,15
			s-7.5,8.6-13.1,11.8c0.4,1.1,0.9,2.1,1.4,2.9c0.5,0.9,1,1.8,1.7,2.6c0.6,0.8,1.1,1.5,1.5,1.9c0.4,0.5,0.9,1.1,1.7,2
			c0.8,0.8,1.3,1.4,1.5,1.7c0,0,0.1,0.1,0.3,0.3c0.1,0.2,0.2,0.3,0.3,0.3c0.1,0.1,0.2,0.2,0.3,0.3c0.1,0.2,0.2,0.3,0.2,0.4
			c0,0.1,0.1,0.2,0.2,0.3c0.1,0.1,0.1,0.3,0.1,0.4c0,0.1,0,0.3,0,0.4c0,0.2,0,0.3-0.1,0.4c-0.1,0.6-0.4,1.1-0.9,1.5
			c-0.4,0.4-0.9,0.5-1.5,0.5c-2.2-0.3-4.2-0.7-5.8-1.1c-6.9-1.8-13.1-4.6-18.6-8.6c-4,0.7-7.9,1.1-11.8,1.1
			c-12.1,0-22.6-2.9-31.6-8.8c2.6,0.2,4.6,0.3,5.9,0.3c7.2,0,14.1-1,20.7-3c6.6-2,12.5-4.9,17.7-8.6c5.6-4.1,9.9-8.8,12.9-14.2
			c3-5.4,4.5-11,4.5-17c0-3.4-0.5-6.8-1.5-10.2c5.8,3.2,10.3,7.1,13.7,11.9C456.6,1149.1,458.2,1154.2,458.2,1159.7z"/>
	</g>
</g>
</svg>
