<?xml version="1.0" encoding="utf-8"?>
<!-- Generator: Adobe Illustrator 25.2.1, SVG Export Plug-In . SVG Version: 6.00 Build 0)  -->
<svg version="1.1" id="Layer_1" xmlns="http://www.w3.org/2000/svg" xmlns:xlink="http://www.w3.org/1999/xlink" x="0px" y="0px"
	 viewBox="0 0 283.465 283.465" enable-background="new 0 0 283.465 283.465" xml:space="preserve">
<g>
	<path fill="#0033A0" d="M60.123,118.044c-1.403,1.066-6.28,4.1-13.618,4.1c-13.279,0-22.325-8.369-22.325-21.128
		c0-12.684,9.593-21.125,22.636-21.125c5.074,0,10.885,1.563,14.127,2.954c-0.677,1.5-1.235,3.481-1.47,4.722l-0.355,0.117
		c-2.509-2.777-6.542-5.182-12.51-5.182c-7.573,0-16.291,6.133-16.291,18.362c0,11.909,8.882,18.237,16.824,18.237
		c7.134,0,10.55-3.33,13.615-5.918l0.235,0.234L60.123,118.044z"/>
	<path fill="#0033A0" d="M93.013,119.225c0-0.896,0.076-1.817,0.14-2.265c-4.026,0.37-15.083,0.706-19.395,0.767
		c-0.073-1.077-0.167-13.847-0.061-15.821c1.724,0,10.836,0.118,14.907,0.532c-0.117-0.591-0.176-1.465-0.176-2.056
		c0-0.59,0.06-1.648,0.176-2.237c-3.481,0.295-7.941,0.589-14.907,0.589c0-1.476,0.12-12.241,0.179-14.776
		c7.67,0,14.616,0.477,18.502,0.767c-0.063-0.402-0.14-1.229-0.14-2.036c0-0.805,0.053-1.458,0.14-2.014
		c-2.044,0.137-8.648,0.297-12.19,0.297c-3.54,0-9.005-0.119-12.545-0.297c0.235,5.017,0.473,10.149,0.473,15.226v10.149
		c0,5.077-0.238,10.21-0.473,15.345c3.599-0.178,9.123-0.295,12.723-0.295c0.169,0,0.346,0,0.523,0.001
		c1.233,0.005,2.795,0.022,4.406,0.05c2.793,0.051,5.737,0.136,7.858,0.245l0,0l0,0C93.066,120.777,93.013,120.12,93.013,119.225z"
		/>
	<path fill="#0033A0" d="M106.228,101.42v4.693c0,5.074,0.235,10.206,0.473,15.283c-1.005-0.178-2.82-0.196-3.192-0.196
		c-0.37,0-2.185,0.018-3.189,0.196c0.236-5.076,0.472-10.209,0.472-15.283V95.961c0-5.074-0.237-10.209-0.472-15.284
		c2.243,0.178,5.082,0.297,7.324,0.297c2.243,0,4.486-0.297,6.727-0.297c6.669,0,12.779,1.97,12.779,9.396
		c0,7.861-7.829,10.681-12.314,11.272c2.892,3.599,13.25,16.214,16.673,20.051c-1.18-0.178-3.158-0.196-3.697-0.196
		c-0.538,0-2.575,0.018-3.697,0.196c-2.332-3.557-9.803-14.753-14.881-19.978C109.08,101.418,106.228,101.42,106.228,101.42z
		 M110.182,99.26c4.873-0.1,11.271-1.647,11.271-8.38c0-5.866-5.134-7.731-9.147-7.731c-2.714,0-4.485,0.177-5.724,0.294
		c-0.178,4.308-0.354,8.268-0.354,12.517c0,0,0,2.819,0,3.245C106.814,99.286,109.579,99.271,110.182,99.26z"/>
	<path fill="#0033A0" d="M172.906,80.658c-0.689,0.119-1.542,0.216-2.587,0.216c-1.03,0-1.914-0.111-2.515-0.216
		c0.259,4.835,0.704,13.779,0.704,19.646c0,4.414-0.001,8.268-0.06,10.451c-2.146-2.283-26.77-27.766-29.272-30.486l-1.932-0.019
		c0.087,3.755,0.196,7.83,0.196,15.264c0,9.517-0.133,19.642-0.619,25.883c0.69-0.12,1.542-0.216,2.586-0.216
		c1.031,0,1.914,0.109,2.514,0.216c-0.258-4.833-0.703-13.781-0.703-19.645c0-4.415,0.003-8.959,0.062-11.14
		c2.146,2.285,26.908,28.112,29.271,31.316l1.933,0.019c-0.088-3.754-0.197-7.972-0.197-15.407
		C172.287,97.022,172.421,86.896,172.906,80.658z"/>
	<path fill="#0033A0" d="M65.492,186.967c-11.597-18.35-14.897-36.065-15.359-49.622c-1.786,0-3.573,0-5.359,0
		c0.449,14.79,4.036,30.299,12.062,45.497C58.726,184.369,63.169,186.311,65.492,186.967z"/>
	<path fill="#0033A0" d="M282.044,4.03c0,0-133.351-1.057-175.87-1.034C99.519,3.001,95.052,3.47,93.611,3.561
		C41.09,6.964,1.592,53.017,1.418,103.241c-0.049,14.6,3.841,31.055,10.154,53.266c8.341,29.345,18.11,63.005,18.11,63.005h5.329
		L15.32,153.079l0.147-0.099c14.465,27.943,47.813,50.393,85.654,50.393c20.419,0,39.358-5.716,54.28-16.244l0.129,0.122
		l-87.602,93.218h6.841c0,0,61.512-65.443,82.436-87.663c16.034-17.025,24.363-27.996,27.849-33.688
		c3.998-6.53,16.7-25.351,16.224-53.075l0.171-0.013l38.386,174.437h5.51c0,0-32.207-142.779-38.458-172.64
		c-6.15-29.384-13.416-47.608-21.258-58.003c-2.694-1.501-6.895-3.209-8.876-3.672c11.381,14.36,19.883,35.722,19.883,57.098
		c0,52.325-42.57,94.893-94.897,94.893c-52.325,0-94.894-42.568-94.894-94.893c0-52.327,42.723-94.897,94.925-94.897
		c23.204,0,44.712,8.511,61.242,22.526c3.196,0.441,7.479,1.44,10.036,2.362l0.019-0.053
		c-11.878-11.846-26.712-20.651-43.212-25.282c0-0.128,0-0.136,0-0.136l152.19,0.949L282.044,4.03z"/>
	<path fill="#0033A0" d="M78.801,203.849c-3.393-0.501-7.632-1.703-10.181-2.796c11.424,13.001,27.142,23.403,42.574,29.24
		l4.049-4.297C98.504,220.343,86.338,211.258,78.801,203.849"/>
	<path fill="#0033A0" d="M218.408,196.252c-16.938,20.737-43.237,34.701-73.451,34.681c-6.487-0.002-12.78-0.728-18.027-1.795
		l-4.337,4.603c8.294,1.916,15.644,2.637,22.671,2.637c31.079,0,57.665-14.505,74.588-33.594L218.408,196.252"/>
	<path fill="#0033A0" d="M253.706,27.828l-9.14,94.377h-0.173c-1.296-17.814-10.178-39.091-21.145-52.542
		c-19.038-23.347-46.975-37.445-78.353-37.445c-29.924,0-56.582,13.277-74.924,34.089l4.201,3.329
		c17.327-19.595,42.15-32.153,70.719-32.153c34.782,0,63.115,17.826,78.964,42.059c14.143,21.623,18.833,49.333,15.555,69.634
		c-1.107,6.858-3.595,20.192-12.732,35.299l1.6,7.027c11.207-17.371,16.892-32.831,21.331-72.351
		c3.403-30.319,9.249-91.327,9.249-91.327L253.706,27.828z"/>
</g>
</svg>
