<svg width="300" height="150" viewBox="0 0 300 150" fill="none" xmlns="http://www.w3.org/2000/svg">
<path d="M258.396 91.0577V58.417H262.193V73.2326H262.286L278.12 58.417L282.981 58.417L264.832 75.3161L264.878 73.2789L284 91.0577H278.999L262.286 75.6865H262.193V91.0577H258.396Z" fill="#1E1E1E"/>
<path d="M241.364 91.474C238.154 91.474 235.407 90.795 233.123 89.4369C230.839 88.0788 229.079 86.1497 227.845 83.6495C226.641 81.1494 226.039 78.1708 226.039 74.7139C226.039 71.2569 226.641 68.2938 227.845 65.8245C229.079 63.3244 230.839 61.3952 233.123 60.0371C235.407 58.6791 238.154 58 241.364 58C243.617 58 245.701 58.355 247.614 59.0649C249.528 59.7748 251.133 60.8088 252.429 62.1669L250.948 65.2689C249.528 63.9417 248.046 62.9848 246.503 62.3984C244.991 61.7811 243.309 61.4724 241.457 61.4724C237.784 61.4724 234.975 62.6299 233.03 64.9448C231.086 67.2598 230.113 70.5161 230.113 74.7139C230.113 78.9116 231.086 82.1834 233.03 84.5292C234.975 86.8442 237.784 88.0016 241.457 88.0016C243.309 88.0016 244.991 87.7084 246.503 87.1219C248.046 86.5046 249.528 85.5324 250.948 84.2051L252.429 87.3071C251.133 88.6344 249.528 89.6684 247.614 90.4092C245.701 91.1191 243.617 91.474 241.364 91.474Z" fill="#1E1E1E"/>
<path d="M190.909 91.0577L205.308 58.417H208.549L222.948 91.0577H219.013L214.985 81.7516L216.837 82.7239H196.928L198.826 81.7516L194.845 91.0577H190.909ZM206.882 62.8617L199.428 80.4089L198.317 79.5293H215.448L214.429 80.4089L206.975 62.8617H206.882Z" fill="#1E1E1E"/>
<path d="M177.742 91.0577V61.7042H165.89V58.417L193.437 58.417V61.7042L181.585 61.7042V91.0577H177.742Z" fill="#1E1E1E"/>
<path fill-rule="evenodd" clip-rule="evenodd" d="M136.821 58.376L162.967 58.376V61.6441L136.821 61.6441V58.376ZM136.821 87.7895H162.967V91.0576H136.821V87.7895ZM162.967 73.0835H136.821V76.3516H162.967V73.0835Z" fill="#1E1E1E"/>
<path d="M117.901 91.0577V74.1586L118.734 76.7976L105.4 58.417H109.845L120.355 72.9548H119.383L129.892 58.417H134.198L120.91 76.7976L121.698 74.1586V91.0577H117.901Z" fill="#1E1E1E"/>
<path d="M80.417 91.0577V88.2334L100.233 60.2226V61.7042H80.417V58.417L103.798 58.417V61.2412L83.982 89.2057V87.7704H104.446V91.0577H80.417Z" fill="#1E1E1E"/>
<path d="M61.1084 91.474C58.8552 91.474 56.8026 91.0882 54.9507 90.3166C53.0987 89.514 51.5246 88.3874 50.2282 86.9367C48.9318 85.4861 47.9287 83.7267 47.2188 81.6587C46.5397 79.5907 46.2002 77.2757 46.2002 74.7139C46.2002 72.1211 46.5397 69.8062 47.2188 67.769C47.9287 65.701 48.9318 63.9571 50.2282 62.5373C51.5246 61.0866 53.0833 59.9754 54.9044 59.2038C56.7563 58.4013 58.8243 58 61.1084 58C63.4234 58 65.4914 58.3858 67.3125 59.1575C69.1644 59.9291 70.7386 61.0403 72.0349 62.491C73.3622 63.9417 74.3653 65.701 75.0444 67.769C75.7543 69.8062 76.1092 72.1057 76.1092 74.6676C76.1092 77.2603 75.7543 79.5907 75.0444 81.6587C74.3344 83.7267 73.3313 85.4861 72.0349 86.9367C70.7386 88.3874 69.1644 89.514 67.3125 90.3166C65.4914 91.0882 63.4234 91.474 61.1084 91.474ZM61.1084 88.0942C63.4542 88.0942 65.4296 87.5695 67.0347 86.5201C68.6706 85.4706 69.9206 83.9428 70.7849 81.9365C71.6491 79.9302 72.0812 77.5227 72.0812 74.7139C72.0812 71.8742 71.6491 69.4667 70.7849 67.4913C69.9206 65.5158 68.6706 64.0034 67.0347 62.954C65.4296 61.9045 63.4542 61.3798 61.1084 61.3798C58.8243 61.3798 56.8644 61.9045 55.2285 62.954C53.6234 64.0034 52.3888 65.5313 51.5246 67.5376C50.6603 69.513 50.2282 71.9051 50.2282 74.7139C50.2282 77.5227 50.6603 79.9302 51.5246 81.9365C52.3888 83.9119 53.6234 85.4398 55.2285 86.5201C56.8644 87.5695 58.8243 88.0942 61.1084 88.0942Z" fill="#1E1E1E"/>
<path d="M31.3249 91.474C28.1149 91.474 25.3678 90.795 23.0837 89.4369C20.7996 88.0788 19.0403 86.1497 17.8057 83.6495C16.6019 81.1494 16 78.1708 16 74.7139C16 71.2569 16.6019 68.2938 17.8057 65.8245C19.0403 63.3244 20.7996 61.3952 23.0837 60.0371C25.3678 58.6791 28.1149 58 31.3249 58C33.5781 58 35.6616 58.355 37.5752 59.0649C39.4889 59.7748 41.094 60.8088 42.3903 62.1669L40.9088 65.2689C39.4889 63.9417 38.0074 62.9848 36.4641 62.3984C34.9516 61.7811 33.2695 61.4724 31.4175 61.4724C27.7445 61.4724 24.9357 62.6299 22.9911 64.9448C21.0466 67.2598 20.0743 70.5161 20.0743 74.7139C20.0743 78.9116 21.0466 82.1834 22.9911 84.5292C24.9357 86.8442 27.7445 88.0016 31.4175 88.0016C33.2695 88.0016 34.9516 87.7084 36.4641 87.1219C38.0074 86.5046 39.4889 85.5324 40.9088 84.2051L42.3903 87.3071C41.094 88.6344 39.4889 89.6684 37.5752 90.4092C35.6616 91.1191 33.5781 91.474 31.3249 91.474Z" fill="#1E1E1E"/>
</svg>
