<svg id="Logo" xmlns="http://www.w3.org/2000/svg" viewBox="0 0 566.13 327.89"><defs><style>.cls-1{fill:#243c98;opacity:0.8;isolation:isolate;}.cls-2{fill:#005aa5;}.cls-3{fill:#fff;}</style></defs><title>MARL_Logo_RGB</title><path class="cls-1" d="M444.13,199.44" transform="translate(0 -0.05)"/><path class="cls-1" d="M456.78,147.88" transform="translate(0 -0.05)"/><path class="cls-1" d="M461.64,143.14" transform="translate(0 -0.05)"/><path class="cls-2" d="M447.24,284a.58.58,0,0,1-.46-.22.6.6,0,0,1-.13-.5l25.84-134.79a3.75,3.75,0,0,0-1.63-3,13.32,13.32,0,0,0-7.82-2.6,11.74,11.74,0,0,0-5.2,1.19l-.13.07c-1.52.75-4.35,2.15-4.86,4.25-.94,5.05-26.31,135.09-26.31,135.09a.59.59,0,0,1-.59.49H9.26a.62.62,0,0,1-.47-.22.64.64,0,0,1-.13-.5L20.83,220.6a.61.61,0,0,1,.59-.49c32.7,0,67.06,0,99.89,0H244.25c34.27,0,67.07,0,101.2,0L369.18,98.42a.59.59,0,0,1,.6-.49h92.3a.58.58,0,0,1,.46.22.6.6,0,0,1,.13.5l-4.33,20.4c6.17-2.49,30.62-15,60-17.83s46.65,9.47,47.75,28.45c.18,3.06-.65,7.8-1.62,13.61L537,283.36a.59.59,0,0,1-.59.49l-89.18.11Z" transform="translate(0 -0.05)"/><path class="cls-2" d="M23.24,327.67l4.58-23.54L15.7,322.8H12.87l-5-18.67L3.3,327.67H0l6-31H9.33l5.82,22,14.11-22h3.31l-6,31Z" transform="translate(0 -0.05)"/><path class="cls-2" d="M61,327.67l-1.12-7H46.32l-3.84,7H39l17.42-31h2.79l5.34,31Zm-4.09-26.24-9,16.36H59.46Z" transform="translate(0 -0.05)"/><path class="cls-2" d="M94.71,327.67l-4.38-13.75H82.89l-2.67,13.75H76.91l6-31H94.81c5.4,0,8.55,3.26,7.51,8.62A10.31,10.31,0,0,1,94,313.62l4.62,14.06H94.71Zm-.78-28H85.66L83.45,311h8.27c3.61,0,6.54-1.87,7.28-5.66S97.54,299.65,93.93,299.65Z" transform="translate(0 -0.05)"/><path class="cls-2" d="M112.86,327.67l6-31h3.31l-5.45,28h15.84l-.58,3Z" transform="translate(0 -0.05)"/><path class="cls-2" d="M160.22,324.71a13.26,13.26,0,0,1-8.55,3.22,9,9,0,0,1-7.29-3.22c-2.35-2.92-1.76-6-.48-12.53s1.87-9.62,5.35-12.53a13.24,13.24,0,0,1,8.55-3.22,9,9,0,0,1,7.29,3.22c2.35,2.92,1.76,6,.48,12.53S163.7,321.8,160.22,324.71Zm1.93-23.1a6.15,6.15,0,0,0-4.92-2.22,9.09,9.09,0,0,0-5.78,2.22c-2.35,2-3,4.09-4.23,10.57s-1.45,8.57.12,10.57a6.15,6.15,0,0,0,4.92,2.22,9.07,9.07,0,0,0,5.78-2.22c2.35-2,3-4.09,4.23-10.57S163.71,303.61,162.15,301.61Z" transform="translate(0 -0.05)"/><path class="cls-2" d="M200.91,327.67h-3.09l-2-24.81-11.7,24.81H181l-1.9-31h3.52l1.19,25,11.69-25h3l2,25,10.91-25h3.52Z" transform="translate(0 -0.05)"/><path class="cls-2" d="M255.88,327.67l-11.62-24.85-4.83,24.85h-3.31l6-31h3.13l11.64,24.76,4.81-24.76H265l-6,31Z" transform="translate(0 -0.05)"/><path class="cls-2" d="M293.44,327.67l-1.12-7H278.79l-3.84,7h-3.53l17.42-31h2.79l5.34,31Zm-4.08-26.24-9,16.36h11.58Z" transform="translate(0 -0.05)"/><path class="cls-2" d="M315.07,327.67h-2.7l-4.16-31h3.48l3.18,25.07,12.92-25.07h3.48Z" transform="translate(0 -0.05)"/><path class="cls-2" d="M337.49,327.67l6-31h3.31l-6,31Z" transform="translate(0 -0.05)"/><path class="cls-2" d="M375.74,324.37a13.45,13.45,0,0,1-9,3.57,9,9,0,0,1-7.29-3.22c-2.35-2.92-1.76-6-.48-12.53s1.87-9.62,5.35-12.53a13.24,13.24,0,0,1,8.55-3.22c5.92,0,9.18,3.83,9,9.27h-3.31c-.11-3.92-2.43-6.31-6.3-6.31a9.09,9.09,0,0,0-5.78,2.22c-2.35,2-3,4.09-4.23,10.57s-1.46,8.62.11,10.62a6.12,6.12,0,0,0,4.93,2.17,9.22,9.22,0,0,0,6.39-2.65,9.83,9.83,0,0,0,2.83-5.61l.46-2.35h-7.62l.57-2.92h10.92l-1,4.92C379.25,319.93,378.05,322.32,375.74,324.37Z" transform="translate(0 -0.05)"/><path class="cls-2" d="M409,327.67l-1.12-7H394.3l-3.84,7h-3.53l17.42-31h2.79l5.34,31Zm-4.08-26.24-9,16.36h11.58Z" transform="translate(0 -0.05)"/><path class="cls-2" d="M435.3,299.65l-5.45,28h-3.31l5.45-28h-9l.58-3h21.24l-.58,3Z" transform="translate(0 -0.05)"/><path class="cls-2" d="M450.7,327.67l6-31H460l-6,31Z" transform="translate(0 -0.05)"/><path class="cls-2" d="M487.22,324.71a13.26,13.26,0,0,1-8.55,3.22,9,9,0,0,1-7.3-3.22c-2.35-2.92-1.76-6-.48-12.53s1.87-9.62,5.35-12.53a13.26,13.26,0,0,1,8.55-3.22,9,9,0,0,1,7.3,3.22c2.35,2.92,1.76,6,.48,12.53S490.71,321.8,487.22,324.71Zm1.93-23.1a6.15,6.15,0,0,0-4.92-2.22,9.07,9.07,0,0,0-5.78,2.22c-2.35,2-3,4.09-4.23,10.57s-1.45,8.57.12,10.57a6.15,6.15,0,0,0,4.92,2.22,9.12,9.12,0,0,0,5.79-2.22c2.35-2,3-4.09,4.23-10.57S490.72,303.61,489.15,301.61Z" transform="translate(0 -0.05)"/><path class="cls-2" d="M525.28,327.67l-11.62-24.85-4.83,24.85h-3.31l6-31h3.13l11.64,24.76,4.81-24.76h3.31l-6,31Z" transform="translate(0 -0.05)"/><path class="cls-3" d="M47.32,210.51H25.39L65.82,2.55h94.8c-1,4.69-2.34,11.44-3.37,17.13L156.47,24l4.11-1.52c1.61-.59,35.22-11.48,53.33-14.92a108.42,108.42,0,0,1,19.88-2.09c19.11,0,29.89,6.46,32,19.18l.63,3.7,3.17-2c7-4.42,38.67-20.92,65.79-20.92h0c.8,0,1.59,0,2.37,0,19.26.82,30.42,6.42,34.13,17.1,1.36,3.92.32,11.89-.19,14.63-1.36,6.93-33.11,169-33.91,173.17l-89,.07L279.43,54.1v-.23a4.9,4.9,0,0,0-2.12-3.69,12.36,12.36,0,0,0-6.73-1.81,19.61,19.61,0,0,0-6.87,1.32l-.14.05-.13.07a6.8,6.8,0,0,0-3.4,3.88l0,.15c-1,5.45-29.64,152.62-30.43,156.66H139.32L169.65,54.62V54.4a4.87,4.87,0,0,0-2.12-3.7,13.65,13.65,0,0,0-7.41-2.12,16.82,16.82,0,0,0-5.9,1.11l-.14.05-.13.07a6.76,6.76,0,0,0-3.4,3.88l0,.15c-1,5.6-2.07,10.68-3.06,15.09L120.11,210.5C118.09,210.49,74.41,210.51,47.32,210.51Z" transform="translate(0 -0.05)"/><path class="cls-2" d="M157.55,5.05c-.88,4.33-1.93,9.6-2.77,14.19l-1.54,8.57,8.19-3c1.71-.62,35.1-11.43,52.93-14.81a106,106,0,0,1,19.42-2c11.23,0,19.42,2.31,24.33,6.87a17.33,17.33,0,0,1,5.25,10.23l1.26,7.4,6.34-4c6.87-4.34,37.94-20.53,64.46-20.53.77,0,1.53,0,2.27.05,9.13.39,16.43,1.89,21.68,4.46s8.5,6.11,10.19,11c1,2.85.43,9.52-.28,13.31-1.29,6.57-29.75,151.8-33.52,171.17l-83.87.07L281.83,54.83l.09-.45v-.46a7.37,7.37,0,0,0-3.23-5.79l-.05,0-.05,0a14.88,14.88,0,0,0-8-2.17,22.39,22.39,0,0,0-7.74,1.47l-.27.1-.26.13a9.13,9.13,0,0,0-4.68,5.5l0,.15,0,.15c-1,5.14-26.49,136.4-30,154.62H142.43L172.06,55.33l.08-.44v-.44a7.36,7.36,0,0,0-3.22-5.81l-.05,0,0,0a16.13,16.13,0,0,0-8.7-2.48,19.43,19.43,0,0,0-6.77,1.27l-.28.1-.26.13a9.13,9.13,0,0,0-4.68,5.5l0,.15,0,.15C147,59,146,64,145,68.39l0,.07v.07L118.06,208c-9.25,0-46.59,0-70.75,0H28.41l39.47-203h89.67m3.17-5h-95a2.41,2.41,0,0,0-2.37,2L22.92,210.11a2.42,2.42,0,0,0,2.37,2.9h22c27.74,0,72.88,0,72.88,0h0a2.42,2.42,0,0,0,2.37-2L149.92,69.47c1-4.44,2-9.54,3.07-15.18.34-1.35,2.11-2.26,2.11-2.26a14.36,14.36,0,0,1,5-1,11.08,11.08,0,0,1,6,1.69,2.56,2.56,0,0,1,1,1.59l-30.22,155.7a2.41,2.41,0,0,0,.5,2,2.54,2.54,0,0,0,1.88.94h90.32a2.41,2.41,0,0,0,2.37-1.95S261.41,59.87,262.45,54.3c.34-1.35,2.11-2.26,2.11-2.26a17.28,17.28,0,0,1,6-1.16,9.92,9.92,0,0,1,5.34,1.39,2.56,2.56,0,0,1,1,1.59L246.37,210.07a2.42,2.42,0,0,0,2.38,2.88h0l89.13-.07a2.42,2.42,0,0,0,2.38-2c.33-1.82,33.92-173.22,33.92-173.22s2-10.49.1-15.91C369.89,9.13,356.87,3.79,337.9,3c-.82,0-1.65,0-2.48,0-28.48,0-61.07,17.48-67.12,21.3C267.2,17.74,262.83,3,233.79,3h0A109.7,109.7,0,0,0,213.44,5.1c-18.24,3.46-52,14.38-53.73,15,1.14-6.28,2.68-13.78,3.38-17.17a2.42,2.42,0,0,0-.49-2,2.47,2.47,0,0,0-1.88-.89Z" transform="translate(0 -0.05)"/></svg>