<?xml version="1.0" encoding="UTF-8" standalone="no"?>
<svg
   viewBox="1.333 9.018 387.20666 447.10664"
   height="447.10666"
   width="387.20667"
   xml:space="preserve"
   version="1.1"
   id="svg17"
   sodipodi:docname="787a24-strimzi.svg"
   inkscape:version="1.4.2 (ebf0e940d0, 2025-05-08)"
   xmlns:inkscape="http://www.inkscape.org/namespaces/inkscape"
   xmlns:sodipodi="http://sodipodi.sourceforge.net/DTD/sodipodi-0.dtd"
   xmlns="http://www.w3.org/2000/svg"
   xmlns:svg="http://www.w3.org/2000/svg"><sodipodi:namedview
     id="namedview17"
     pagecolor="#ffffff"
     bordercolor="#000000"
     borderopacity="0.25"
     inkscape:showpageshadow="2"
     inkscape:pageopacity="0.0"
     inkscape:pagecheckerboard="0"
     inkscape:deskcolor="#d1d1d1"
     inkscape:zoom="0.56343344"
     inkscape:cx="-59.456889"
     inkscape:cy="147.3111"
     inkscape:window-width="1920"
     inkscape:window-height="975"
     inkscape:window-x="0"
     inkscape:window-y="0"
     inkscape:window-maximized="1"
     inkscape:current-layer="svg17" /><defs
     id="defs1"><path
       d="M 0,0 17.613,99.761 H 50.444 L 32.831,0 Z"
       fill="#192c47"
       fill-opacity="1"
       fill-rule="nonzero"
       stroke="none"
       id="d" /></defs><defs
     id="defs2"><clipPath
       id="a"
       clipPathUnits="userSpaceOnUse"><path
         d="m 303.856,398.29 c -5.979,-7.665 -76.496,-24.775 -132.823,-50.154 v 0 -72.025 L 300,201.652 428.967,276.111 v 14.961 c -21.435,4.168 -48.369,8.136 -81.695,11.016 v 0 c -113.441,9.803 -8.402,32.212 39.215,72.386 v 0 c 47.618,40.175 -158.259,52.26 -158.259,52.26 v 0 c 0,0 84.031,-17.671 75.628,-28.444"
         id="path1" /></clipPath><linearGradient
       id="b"
       spreadMethod="pad"
       gradientTransform="matrix(188.73569,-403.63272,-403.63272,-188.73569,216.57962,472.70331)"
       gradientUnits="userSpaceOnUse"
       y2="0"
       x2="1"
       y1="0"
       x1="0"><stop
         offset="0"
         stop-color="#fff"
         id="stop1" /><stop
         offset="1"
         stop-color="#54bad8"
         id="stop2" /></linearGradient><clipPath
       id="c"
       clipPathUnits="userSpaceOnUse"><path
         d="M 0,524.999 H 600 V 0 H 0 Z"
         id="path2" /></clipPath></defs><g
     transform="matrix(1.3333333,0,0,-1.3333333,194.93566,9.018)"
     id="g3"><path
       d="M 0,0 -145.202,-83.832 V -251.498 L 0,-335.33 l 145.203,83.832 v 167.666 z"
       fill="#192c47"
       id="path3" /></g><g
     id="g7"
     transform="matrix(1.3333333,0,0,-1.3333333,-205.06406,699.99852)"><g
       clip-path="url(#a)"
       id="g6"><g
         id="g5"><g
           id="g4"><path
             d="m 303.856,398.29 c -5.979,-7.665 -76.496,-24.775 -132.823,-50.154 v 0 -72.025 L 300,201.652 428.967,276.111 v 14.961 c -21.435,4.168 -48.369,8.136 -81.695,11.016 v 0 c -113.441,9.803 -8.402,32.212 39.215,72.386 v 0 c 47.618,40.175 -158.259,52.26 -158.259,52.26 v 0 c 0,0 84.031,-17.671 75.628,-28.444"
             fill="url(#b)"
             id="path4"
             style="fill:url(#b)" /></g></g></g></g></svg>
